<?xml version="1.0" encoding="UTF-8" standalone="no"?>
<!-- Uploaded to: SVG Repo, www.svgrepo.com, Generator: SVG Repo Mixer Tools -->

<svg
   width="800px"
   height="800px"
   viewBox="0 0 24 24"
   fill="none"
   version="1.1"
   id="svg4"
   sodipodi:docname="user-2-svgrepo-com.svg"
   inkscape:version="1.2.2 (b0a8486541, 2022-12-01)"
   xmlns:inkscape="http://www.inkscape.org/namespaces/inkscape"
   xmlns:sodipodi="http://sodipodi.sourceforge.net/DTD/sodipodi-0.dtd"
   xmlns="http://www.w3.org/2000/svg"
   xmlns:svg="http://www.w3.org/2000/svg">
  <defs
     id="defs8" />
  <sodipodi:namedview
     id="namedview6"
     pagecolor="#ffffff"
     bordercolor="#000000"
     borderopacity="0.25"
     inkscape:showpageshadow="2"
     inkscape:pageopacity="0.0"
     inkscape:pagecheckerboard="0"
     inkscape:deskcolor="#d1d1d1"
     showgrid="false"
     inkscape:zoom="0.74375"
     inkscape:cx="212.43697"
     inkscape:cy="401.34454"
     inkscape:window-width="1600"
     inkscape:window-height="831"
     inkscape:window-x="0"
     inkscape:window-y="0"
     inkscape:window-maximized="1"
     inkscape:current-layer="svg4" />
  <path
     d="M18 18.7023C18 15.6706 14.5 15 12 15C9.5 15 6 15.6706 6 18.7023M21 12C21 16.9706 16.9706 21 12 21C7.02944 21 3 16.9706 3 12C3 7.02944 7.02944 3 12 3C16.9706 3 21 7.02944 21 12ZM15 9C15 10.6569 13.6569 12 12 12C10.3431 12 9 10.6569 9 9C9 7.34315 10.3431 6 12 6C13.6569 6 15 7.34315 15 9Z"
     stroke="#000000"
     stroke-width="1.5"
     stroke-linecap="round"
     stroke-linejoin="round"
     id="path2"
     style="fill:#ffffff" />
  <path
     style="fill:#0055d4;stroke-width:1.34454"
     d="m 178.90515,562.12729 c -26.04808,-35.25998 -43.82143,-79.03903 -50.53601,-124.47955 -2.75025,-18.61218 -2.75025,-56.6833 0,-75.29548 8.67503,-58.70776 33.48947,-109.64712 73.85498,-151.61037 50.48385,-52.4821 115.04394,-81.58092 187.69185,-84.59733 98.33522,-4.08298 192.41099,46.59447 244.27073,131.58557 19.42648,31.83737 32.16913,67.5425 37.37077,104.71351 2.80319,20.03167 2.80319,55.08105 0,75.11272 -6.20415,44.33493 -23.69159,87.83888 -49.36001,122.79415 l -6.675,9.09 -6.92089,-11.67337 c -17.54959,-29.60063 -49.48451,-53.17077 -90.15502,-66.5405 -75.60069,-24.85244 -189.01284,-21.73103 -255.31792,7.02705 -34.39376,14.91739 -58.58336,35.5213 -73.85174,62.90449 l -4.76908,8.55316 z M 431.59597,421.57322 c 22.98924,-5.99126 41.24808,-16.70505 58.48806,-34.3192 17.88176,-18.26983 29.13204,-40.42674 33.63339,-66.23939 11.43578,-65.57764 -31.05958,-128.96429 -96.36274,-143.73594 -13.29861,-3.00816 -41.41075,-3.00816 -54.70936,0 -65.32949,14.77761 -107.79891,78.15604 -96.35317,143.79078 9.1228,52.31401 48.59395,92.46203 100.85071,102.5801 13.78605,2.6693 40.09241,1.66621 54.45311,-2.07635 z"
     id="path392"
     transform="scale(0.03)" />
  <path
     style="fill:#ffffff;stroke-width:1.34454"
     d="M 366.38655,722.56584 C 278.23622,713.46846 195.32525,666.59375 141.86563,595.63025 108.1826,550.91863 87.601518,501.95009 79.13972,446.38655 c -4.026552,-26.43994 -4.026552,-66.33316 0,-92.7731 C 91.165397,274.64807 130.78864,203.08219 190.18417,153.0495 290.04999,68.92609 427.5252,52.095313 544.0526,109.7262 c 64.25425,31.77818 117.49777,85.96905 148.4724,151.11414 21.66567,45.56668 31.20192,88.09812 31.20192,139.15966 0,31.12148 -2.74396,53.74409 -9.78494,80.67227 -34.49133,131.9117 -147.29882,228.66029 -282.15166,241.98548 -16.00047,1.58105 -49.6516,1.53377 -65.40377,-0.092 z m 76.63866,-50.25198 c 43.61591,-6.79381 84.4242,-23.96476 121.35041,-51.0608 12.57049,-9.22409 12.19901,-7.8278 6.77003,-25.44577 -11.15555,-36.20168 -55.50291,-60.69987 -124.48876,-68.76959 -22.38291,-2.61827 -70.93087,-2.61827 -93.31378,0 -43.30406,5.06555 -78.91193,17.25483 -100.13312,34.27755 -14.12058,11.32693 -24.85401,29.48389 -27.83599,47.08811 -0.78088,4.60987 -0.57123,4.87203 10.27577,12.8497 40.86883,30.05786 85.216,47.32912 136.11494,53.01074 14.9313,1.6667 55.09796,0.56761 71.2605,-1.94994 z M 191.48538,560.93975 c 13.46001,-23.98221 33.75773,-42.27193 63.41803,-57.14425 57.81561,-28.99003 159.89283,-36.56483 239.21424,-17.75128 55.34072,13.1258 93.89959,38.37456 114.40836,74.91585 4.95437,8.82737 6.65156,10.86934 8.06157,9.69914 3.61434,-2.99965 22.14522,-31.8922 28.65312,-44.67475 20.45799,-40.18277 29.82071,-79.73772 29.82071,-125.98446 0,-57.47646 -15.30556,-107.93763 -46.89894,-154.62185 C 550.7492,130.98775 400.18537,91.710217 276.37339,153.60707 195.68006,193.94778 140.21648,271.18665 127.06893,361.52922 c -2.82644,19.42169 -2.81962,57.59705 0.0137,76.94156 6.8295,46.62787 24.1063,88.87444 51.48657,125.89897 3.1445,4.2521 5.92758,7.73109 6.18463,7.73109 0.25705,0 3.28623,-5.02249 6.73152,-11.16109 z"
     id="path463"
     transform="scale(0.03)" />
  <path
     style="fill:#ffffff;stroke-width:1.34454"
     d="m 377.32144,422.19867 c -48.6047,-10.10268 -84.94931,-44.33741 -97.88703,-92.20449 -4.37591,-16.19003 -4.34294,-44.01012 0.0716,-60.41367 6.26587,-23.28276 16.88486,-41.3289 34.41644,-58.48807 26.27023,-25.7122 63.5936,-38.68358 99.26452,-34.49843 28.3395,3.32498 53.4597,15.33901 73.53864,35.1707 48.53809,47.9404 50.07756,123.33297 3.53436,173.08942 -15.63317,16.71246 -37.26407,29.63259 -59.3356,35.44117 -13.98102,3.67938 -40.52395,4.62189 -53.60293,1.90337 z m 38.81301,-48.43184 c 13.13707,-2.77041 24.92472,-8.95113 34.9411,-18.32095 16.85734,-15.76923 23.98302,-32.05826 24.03437,-54.94168 0.05,-22.27215 -6.5898,-38.64882 -21.86158,-53.9206 -24.70047,-24.70047 -62.1731,-29.14385 -92.73722,-10.99648 -23.76353,14.10953 -38.36932,43.08626 -35.81676,71.05759 1.75821,19.26667 9.65083,35.16298 24.23009,48.80117 18.15088,16.97925 42.32475,23.56887 67.21,18.32095 z"
     id="path465"
     transform="scale(0.03)" />
</svg>
